<mxfile host="app.diagrams.net" agent="Mozilla/5.0 (X11; Ubuntu; Linux x86_64; rv:132.0) Gecko/20100101 Firefox/132.0" version="24.8.6">
  <diagram name="Page-1" id="jmVvjldoQpSpnG9DupPP">
    <mxGraphModel dx="2074" dy="1155" grid="0" gridSize="10" guides="1" tooltips="1" connect="1" arrows="1" fold="1" page="1" pageScale="1" pageWidth="1169" pageHeight="1654" math="0" shadow="0">
      <root>
        <mxCell id="0" />
        <mxCell id="1" parent="0" />
        <mxCell id="6ZfRXDKBzBjpX3HPQVgZ-1" value="" style="rounded=1;whiteSpace=wrap;html=1;labelBackgroundColor=none;fillColor=default;dashed=1;" parent="1" vertex="1">
          <mxGeometry x="460.06" y="593" width="100" height="216" as="geometry" />
        </mxCell>
        <mxCell id="6ZfRXDKBzBjpX3HPQVgZ-2" value="docker/ros2_workspaces" style="text;html=1;align=center;verticalAlign=middle;whiteSpace=wrap;rounded=0;fontSize=10;fontStyle=2" parent="1" vertex="1">
          <mxGeometry x="445" y="575" width="126.12" height="19" as="geometry" />
        </mxCell>
        <mxCell id="MKgT2Ga8DgcfNqjwjeTm-8" value="" style="shape=cylinder3;whiteSpace=wrap;html=1;boundedLbl=1;backgroundOutline=1;size=15;fillColor=#EBF6FF;" parent="1" vertex="1">
          <mxGeometry x="424.56" y="101" width="536" height="124" as="geometry" />
        </mxCell>
        <mxCell id="MKgT2Ga8DgcfNqjwjeTm-1" value="" style="rounded=1;whiteSpace=wrap;html=1;fillColor=#FFEDDE;" parent="1" vertex="1">
          <mxGeometry x="424.56" y="365" width="537" height="84" as="geometry" />
        </mxCell>
        <mxCell id="sPCunL1a2oToZt1WPot6-58" value="" style="rounded=1;whiteSpace=wrap;html=1;labelBackgroundColor=none;fillColor=none;dashed=1;" parent="1" vertex="1">
          <mxGeometry x="209.18" y="594" width="86.88" height="311" as="geometry" />
        </mxCell>
        <mxCell id="sPCunL1a2oToZt1WPot6-56" value="" style="rounded=1;whiteSpace=wrap;html=1;labelBackgroundColor=none;fillColor=none;dashed=1;" parent="1" vertex="1">
          <mxGeometry x="330.06" y="593" width="92.12" height="112" as="geometry" />
        </mxCell>
        <mxCell id="sPCunL1a2oToZt1WPot6-39" value="" style="rounded=1;whiteSpace=wrap;html=1;labelBackgroundColor=none;fillColor=default;dashed=1;" parent="1" vertex="1">
          <mxGeometry x="241" y="298" width="100" height="220" as="geometry" />
        </mxCell>
        <mxCell id="sPCunL1a2oToZt1WPot6-1" value="" style="whiteSpace=wrap;html=1;shape=mxgraph.basic.document;fontSize=12;fillColor=#ffe6cc;strokeColor=#d79b00;" parent="1" vertex="1">
          <mxGeometry x="223.06" y="610" width="60" height="80" as="geometry" />
        </mxCell>
        <mxCell id="sPCunL1a2oToZt1WPot6-37" style="edgeStyle=orthogonalEdgeStyle;rounded=1;orthogonalLoop=1;jettySize=auto;html=1;curved=0;shape=flexArrow;strokeWidth=1;startSize=6;endSize=6;sourcePerimeterSpacing=0;targetPerimeterSpacing=0;shadow=0;flowAnimation=0;fillColor=#E8E8E8;" parent="1" edge="1">
          <mxGeometry relative="1" as="geometry">
            <mxPoint x="692" y="231" as="sourcePoint" />
            <mxPoint x="692.18" y="344" as="targetPoint" />
          </mxGeometry>
        </mxCell>
        <mxCell id="sPCunL1a2oToZt1WPot6-2" value="&lt;span&gt;osrf/ros:iron_desktop&lt;/span&gt;" style="rounded=1;whiteSpace=wrap;html=1;strokeWidth=2;fillColor=#b1ddf0;strokeColor=#000000;fontStyle=2" parent="1" vertex="1">
          <mxGeometry x="612.9399999999999" y="146" width="160" height="60" as="geometry" />
        </mxCell>
        <mxCell id="sPCunL1a2oToZt1WPot6-35" style="edgeStyle=orthogonalEdgeStyle;rounded=1;orthogonalLoop=1;jettySize=auto;html=1;exitX=1;exitY=0.5;exitDx=0;exitDy=0;exitPerimeter=0;curved=0;entryX=0;entryY=0.25;entryDx=0;entryDy=0;" parent="1" source="sPCunL1a2oToZt1WPot6-13" target="MKgT2Ga8DgcfNqjwjeTm-1" edge="1">
          <mxGeometry relative="1" as="geometry">
            <mxPoint x="399.12" y="386.9999999999998" as="targetPoint" />
          </mxGeometry>
        </mxCell>
        <mxCell id="sPCunL1a2oToZt1WPot6-13" value="" style="whiteSpace=wrap;html=1;shape=mxgraph.basic.document;fontSize=10;fillColor=#fff2cc;strokeColor=#d6b656;" parent="1" vertex="1">
          <mxGeometry x="261" y="318" width="60" height="80" as="geometry" />
        </mxCell>
        <mxCell id="sPCunL1a2oToZt1WPot6-14" value="" style="whiteSpace=wrap;html=1;shape=mxgraph.basic.document;fontSize=9;fillColor=#d5e8d4;strokeColor=#82b366;" parent="1" vertex="1">
          <mxGeometry x="348.06" y="610" width="60" height="80" as="geometry" />
        </mxCell>
        <mxCell id="sPCunL1a2oToZt1WPot6-38" style="edgeStyle=orthogonalEdgeStyle;rounded=1;orthogonalLoop=1;jettySize=auto;html=1;exitX=1;exitY=0.5;exitDx=0;exitDy=0;exitPerimeter=0;curved=0;entryX=0;entryY=0.75;entryDx=0;entryDy=0;" parent="1" source="sPCunL1a2oToZt1WPot6-15" target="MKgT2Ga8DgcfNqjwjeTm-1" edge="1">
          <mxGeometry relative="1" as="geometry">
            <mxPoint x="399.12" y="428.9999999999998" as="targetPoint" />
          </mxGeometry>
        </mxCell>
        <mxCell id="sPCunL1a2oToZt1WPot6-15" value="" style="whiteSpace=wrap;html=1;shape=mxgraph.basic.document;fontSize=9;fillColor=#dae8fc;strokeColor=#6c8ebf;" parent="1" vertex="1">
          <mxGeometry x="261" y="418" width="60" height="80" as="geometry" />
        </mxCell>
        <mxCell id="sPCunL1a2oToZt1WPot6-54" style="edgeStyle=orthogonalEdgeStyle;rounded=1;orthogonalLoop=1;jettySize=auto;html=1;exitX=1;exitY=0.5;exitDx=0;exitDy=0;exitPerimeter=0;entryX=0;entryY=0.75;entryDx=0;entryDy=0;curved=0;" parent="1" source="sPCunL1a2oToZt1WPot6-16" target="sPCunL1a2oToZt1WPot6-26" edge="1">
          <mxGeometry relative="1" as="geometry">
            <Array as="points">
              <mxPoint x="577.06" y="851" />
              <mxPoint x="577.06" y="765" />
            </Array>
          </mxGeometry>
        </mxCell>
        <mxCell id="sPCunL1a2oToZt1WPot6-16" value="" style="whiteSpace=wrap;shape=mxgraph.basic.document;fontSize=9;html=1;labelBorderColor=none;textShadow=0;fillColor=#e1d5e7;strokeColor=#9673a6;" parent="1" vertex="1">
          <mxGeometry x="222.56" y="811" width="60" height="80" as="geometry" />
        </mxCell>
        <mxCell id="sPCunL1a2oToZt1WPot6-18" value="&lt;font style=&quot;font-size: 11px;&quot;&gt;install_deps.sh&lt;/font&gt;" style="text;html=1;align=center;verticalAlign=middle;whiteSpace=wrap;rounded=0;rotation=-55;fontSize=11;fontStyle=2" parent="1" vertex="1">
          <mxGeometry x="209.18" y="848.65" width="83.77" height="12.7" as="geometry" />
        </mxCell>
        <UserObject label="&lt;font style=&quot;font-size: 11px;&quot;&gt;docker-compose.yml&lt;/font&gt;" id="sPCunL1a2oToZt1WPot6-21">
          <mxCell style="text;html=1;align=center;verticalAlign=middle;whiteSpace=wrap;rounded=0;rotation=305;fontSize=11;fontStyle=2" parent="1" vertex="1">
            <mxGeometry x="344.06" y="637" width="60" height="30" as="geometry" />
          </mxCell>
        </UserObject>
        <UserObject label="entrypoint.sh" id="sPCunL1a2oToZt1WPot6-22">
          <mxCell style="text;html=1;align=center;verticalAlign=middle;whiteSpace=wrap;rounded=0;rotation=305;fontSize=11;fontStyle=2" parent="1" vertex="1">
            <mxGeometry x="261" y="446" width="60" height="30" as="geometry" />
          </mxCell>
        </UserObject>
        <UserObject label="Dockerfile" id="sPCunL1a2oToZt1WPot6-23">
          <mxCell style="text;html=1;align=center;verticalAlign=middle;whiteSpace=wrap;rounded=0;rotation=305;fontSize=12;fontStyle=2" parent="1" vertex="1">
            <mxGeometry x="259" y="348" width="60" height="30" as="geometry" />
          </mxCell>
        </UserObject>
        <UserObject label=".env" id="sPCunL1a2oToZt1WPot6-24">
          <mxCell style="text;html=1;align=center;verticalAlign=middle;whiteSpace=wrap;rounded=0;rotation=305;fontSize=13;fontStyle=2" parent="1" vertex="1">
            <mxGeometry x="221.06" y="635" width="60" height="30" as="geometry" />
          </mxCell>
        </UserObject>
        <mxCell id="sPCunL1a2oToZt1WPot6-55" style="edgeStyle=orthogonalEdgeStyle;rounded=1;orthogonalLoop=1;jettySize=auto;html=1;curved=0;shape=flexArrow;strokeWidth=1;startSize=6;endSize=6;flowAnimation=0;shadow=0;fillColor=#E8E8E8;" parent="1" edge="1">
          <mxGeometry relative="1" as="geometry">
            <mxPoint x="693.18" y="456" as="sourcePoint" />
            <mxPoint x="693.18" y="694" as="targetPoint" />
          </mxGeometry>
        </mxCell>
        <mxCell id="sPCunL1a2oToZt1WPot6-25" value="&lt;span&gt;ros2_base_image:&lt;/span&gt;&lt;span&gt;iron&lt;/span&gt;" style="rounded=1;whiteSpace=wrap;html=1;strokeWidth=2;fillColor=#fad7ac;strokeColor=#000000;fontStyle=2" parent="1" vertex="1">
          <mxGeometry x="612.9399999999999" y="377" width="160" height="60" as="geometry" />
        </mxCell>
        <mxCell id="sPCunL1a2oToZt1WPot6-26" value="&lt;span&gt;&amp;lt;ros_ws&amp;gt;_image&lt;/span&gt;" style="rounded=1;whiteSpace=wrap;html=1;strokeWidth=2;fillColor=#fad9d5;strokeColor=#000000;fontStyle=2" parent="1" vertex="1">
          <mxGeometry x="613.06" y="720" width="160" height="60" as="geometry" />
        </mxCell>
        <mxCell id="sPCunL1a2oToZt1WPot6-31" value="" style="sketch=0;points=[[0,0,0],[0.25,0,0],[0.5,0,0],[0.75,0,0],[1,0,0],[0,1,0],[0.25,1,0],[0.5,1,0],[0.75,1,0],[1,1,0],[0,0.25,0],[0,0.5,0],[0,0.75,0],[1,0.25,0],[1,0.5,0],[1,0.75,0]];points=[[0,0,0],[0.25,0,0],[0.5,0,0],[0.75,0,0],[1,0,0],[0,1,0],[0.25,1,0],[0.5,1,0],[0.75,1,0],[1,1,0],[0,0.25,0],[0,0.5,0],[0,0.75,0],[1,0.25,0],[1,0.5,0],[1,0.75,0]];outlineConnect=0;fontColor=default;fillColor=#6E6E6E;strokeColor=#ffffff;dashed=0;verticalLabelPosition=bottom;verticalAlign=top;align=center;html=1;fontSize=12;fontStyle=0;aspect=fixed;shape=mxgraph.aws4.resourceIcon;resIcon=mxgraph.aws4.command_line_interface;" parent="1" vertex="1">
          <mxGeometry x="141" y="338" width="40" height="40" as="geometry" />
        </mxCell>
        <mxCell id="sPCunL1a2oToZt1WPot6-32" value="&lt;b&gt;&lt;font style=&quot;font-size: 11px;&quot;&gt;CLI&lt;/font&gt;&lt;/b&gt;" style="text;html=1;align=center;verticalAlign=middle;whiteSpace=wrap;rounded=0;" parent="1" vertex="1">
          <mxGeometry x="141" y="378" width="40" height="15" as="geometry" />
        </mxCell>
        <mxCell id="sPCunL1a2oToZt1WPot6-33" style="edgeStyle=orthogonalEdgeStyle;rounded=0;orthogonalLoop=1;jettySize=auto;html=1;exitX=1;exitY=0.5;exitDx=0;exitDy=0;exitPerimeter=0;entryX=0;entryY=0.5;entryDx=0;entryDy=0;entryPerimeter=0;" parent="1" source="sPCunL1a2oToZt1WPot6-31" target="sPCunL1a2oToZt1WPot6-13" edge="1">
          <mxGeometry relative="1" as="geometry" />
        </mxCell>
        <mxCell id="sPCunL1a2oToZt1WPot6-36" value="args" style="edgeLabel;html=1;align=center;verticalAlign=middle;resizable=0;points=[];" parent="sPCunL1a2oToZt1WPot6-33" vertex="1" connectable="0">
          <mxGeometry x="-0.1917" y="2" relative="1" as="geometry">
            <mxPoint x="5" y="1" as="offset" />
          </mxGeometry>
        </mxCell>
        <mxCell id="sPCunL1a2oToZt1WPot6-40" value="docker/ros2_base" style="text;html=1;align=center;verticalAlign=middle;whiteSpace=wrap;rounded=0;fontSize=10;fontStyle=2" parent="1" vertex="1">
          <mxGeometry x="241" y="280" width="100" height="18" as="geometry" />
        </mxCell>
        <mxCell id="sPCunL1a2oToZt1WPot6-52" style="edgeStyle=orthogonalEdgeStyle;rounded=1;orthogonalLoop=1;jettySize=auto;html=1;exitX=1;exitY=0.5;exitDx=0;exitDy=0;exitPerimeter=0;entryX=0;entryY=0.25;entryDx=0;entryDy=0;curved=0;" parent="1" source="sPCunL1a2oToZt1WPot6-41" target="sPCunL1a2oToZt1WPot6-26" edge="1">
          <mxGeometry relative="1" as="geometry" />
        </mxCell>
        <mxCell id="sPCunL1a2oToZt1WPot6-41" value="" style="whiteSpace=wrap;html=1;shape=mxgraph.basic.document;fontSize=10;fillColor=#fff2cc;strokeColor=#d6b656;" parent="1" vertex="1">
          <mxGeometry x="480.06" y="610" width="60" height="80" as="geometry" />
        </mxCell>
        <mxCell id="sPCunL1a2oToZt1WPot6-53" style="edgeStyle=orthogonalEdgeStyle;rounded=1;orthogonalLoop=1;jettySize=auto;html=1;exitX=1;exitY=0.5;exitDx=0;exitDy=0;exitPerimeter=0;entryX=0;entryY=0.5;entryDx=0;entryDy=0;curved=0;" parent="1" source="sPCunL1a2oToZt1WPot6-42" target="sPCunL1a2oToZt1WPot6-26" edge="1">
          <mxGeometry relative="1" as="geometry" />
        </mxCell>
        <mxCell id="sPCunL1a2oToZt1WPot6-42" value="" style="whiteSpace=wrap;html=1;shape=mxgraph.basic.document;fontSize=9;fillColor=#dae8fc;strokeColor=#6c8ebf;" parent="1" vertex="1">
          <mxGeometry x="480.06" y="710" width="60" height="80" as="geometry" />
        </mxCell>
        <UserObject label="entrypoint.sh" id="sPCunL1a2oToZt1WPot6-43">
          <mxCell style="text;html=1;align=center;verticalAlign=middle;whiteSpace=wrap;rounded=0;rotation=305;fontSize=11;fontStyle=2" parent="1" vertex="1">
            <mxGeometry x="480.06" y="738" width="60" height="30" as="geometry" />
          </mxCell>
        </UserObject>
        <UserObject label="Dockerfile" id="sPCunL1a2oToZt1WPot6-44">
          <mxCell style="text;html=1;align=center;verticalAlign=middle;whiteSpace=wrap;rounded=0;rotation=305;fontSize=12;fontStyle=2" parent="1" vertex="1">
            <mxGeometry x="478.06" y="640" width="60" height="30" as="geometry" />
          </mxCell>
        </UserObject>
        <mxCell id="sPCunL1a2oToZt1WPot6-45" value="" style="sketch=0;points=[[0,0,0],[0.25,0,0],[0.5,0,0],[0.75,0,0],[1,0,0],[0,1,0],[0.25,1,0],[0.5,1,0],[0.75,1,0],[1,1,0],[0,0.25,0],[0,0.5,0],[0,0.75,0],[1,0.25,0],[1,0.5,0],[1,0.75,0]];points=[[0,0,0],[0.25,0,0],[0.5,0,0],[0.75,0,0],[1,0,0],[0,1,0],[0.25,1,0],[0.5,1,0],[0.75,1,0],[1,1,0],[0,0.25,0],[0,0.5,0],[0,0.75,0],[1,0.25,0],[1,0.5,0],[1,0.75,0]];outlineConnect=0;fontColor=default;fillColor=#6E6E6E;strokeColor=#ffffff;dashed=0;verticalLabelPosition=bottom;verticalAlign=top;align=center;html=1;fontSize=12;fontStyle=0;aspect=fixed;shape=mxgraph.aws4.resourceIcon;resIcon=mxgraph.aws4.command_line_interface;" parent="1" vertex="1">
          <mxGeometry x="141" y="538" width="40" height="40" as="geometry" />
        </mxCell>
        <mxCell id="sPCunL1a2oToZt1WPot6-46" value="&lt;b&gt;&lt;font style=&quot;font-size: 11px;&quot;&gt;CLI&lt;/font&gt;&lt;/b&gt;" style="text;html=1;align=center;verticalAlign=middle;whiteSpace=wrap;rounded=0;" parent="1" vertex="1">
          <mxGeometry x="141" y="578" width="40" height="15" as="geometry" />
        </mxCell>
        <mxCell id="sPCunL1a2oToZt1WPot6-47" style="edgeStyle=orthogonalEdgeStyle;rounded=1;orthogonalLoop=1;jettySize=auto;html=1;exitX=1;exitY=0.5;exitDx=0;exitDy=0;exitPerimeter=0;curved=0;entryX=0.5;entryY=0;entryDx=0;entryDy=0;entryPerimeter=0;jumpStyle=gap;" parent="1" source="sPCunL1a2oToZt1WPot6-45" target="sPCunL1a2oToZt1WPot6-14" edge="1">
          <mxGeometry relative="1" as="geometry">
            <mxPoint x="392.18" y="570" as="targetPoint" />
            <Array as="points">
              <mxPoint x="378.18" y="558" />
            </Array>
          </mxGeometry>
        </mxCell>
        <mxCell id="6ZfRXDKBzBjpX3HPQVgZ-5" value="project root" style="edgeLabel;html=1;align=center;verticalAlign=middle;resizable=0;points=[];fontStyle=2;fontSize=10;" parent="sPCunL1a2oToZt1WPot6-47" vertex="1" connectable="0">
          <mxGeometry x="0.8161" y="2" relative="1" as="geometry">
            <mxPoint x="-2" y="-2" as="offset" />
          </mxGeometry>
        </mxCell>
        <mxCell id="sPCunL1a2oToZt1WPot6-50" style="edgeStyle=orthogonalEdgeStyle;rounded=0;orthogonalLoop=1;jettySize=auto;html=1;exitX=1;exitY=0.5;exitDx=0;exitDy=0;exitPerimeter=0;entryX=0;entryY=0.5;entryDx=0;entryDy=0;entryPerimeter=0;" parent="1" source="sPCunL1a2oToZt1WPot6-1" target="sPCunL1a2oToZt1WPot6-14" edge="1">
          <mxGeometry relative="1" as="geometry" />
        </mxCell>
        <mxCell id="sPCunL1a2oToZt1WPot6-63" value="args" style="edgeLabel;html=1;align=center;verticalAlign=middle;resizable=0;points=[];" parent="sPCunL1a2oToZt1WPot6-50" vertex="1" connectable="0">
          <mxGeometry x="-0.1904" y="-1" relative="1" as="geometry">
            <mxPoint x="2" y="-2" as="offset" />
          </mxGeometry>
        </mxCell>
        <mxCell id="sPCunL1a2oToZt1WPot6-51" style="edgeStyle=orthogonalEdgeStyle;rounded=0;orthogonalLoop=1;jettySize=auto;html=1;exitX=1;exitY=0.5;exitDx=0;exitDy=0;exitPerimeter=0;entryX=0;entryY=0.5;entryDx=0;entryDy=0;entryPerimeter=0;" parent="1" source="sPCunL1a2oToZt1WPot6-14" target="sPCunL1a2oToZt1WPot6-41" edge="1">
          <mxGeometry relative="1" as="geometry" />
        </mxCell>
        <mxCell id="sPCunL1a2oToZt1WPot6-64" value="args" style="edgeLabel;html=1;align=center;verticalAlign=middle;resizable=0;points=[];" parent="sPCunL1a2oToZt1WPot6-51" vertex="1" connectable="0">
          <mxGeometry x="-0.1349" y="2" relative="1" as="geometry">
            <mxPoint x="1" y="1" as="offset" />
          </mxGeometry>
        </mxCell>
        <mxCell id="sPCunL1a2oToZt1WPot6-60" value="workspaces/&amp;lt;ros_ws&amp;gt;" style="text;html=1;align=center;verticalAlign=middle;whiteSpace=wrap;rounded=0;fontSize=10;fontStyle=2" parent="1" vertex="1">
          <mxGeometry x="196" y="576" width="119" height="17" as="geometry" />
        </mxCell>
        <mxCell id="MKgT2Ga8DgcfNqjwjeTm-3" value="&lt;span&gt;osrf/ros:humble_desktop&lt;/span&gt;" style="rounded=1;whiteSpace=wrap;html=1;strokeWidth=2;fillColor=#b1ddf0;strokeColor=#000000;fontStyle=2" parent="1" vertex="1">
          <mxGeometry x="437.82" y="146" width="160" height="60" as="geometry" />
        </mxCell>
        <mxCell id="MKgT2Ga8DgcfNqjwjeTm-4" value="&lt;span&gt;ros2_base_image:humble&lt;/span&gt;" style="rounded=1;whiteSpace=wrap;html=1;strokeWidth=2;fillColor=#fad7ac;strokeColor=#000000;fontStyle=2" parent="1" vertex="1">
          <mxGeometry x="437.82" y="377" width="160" height="60" as="geometry" />
        </mxCell>
        <mxCell id="MKgT2Ga8DgcfNqjwjeTm-6" value="&lt;span&gt;osrf/ros:jazzy_desktop&lt;/span&gt;" style="rounded=1;whiteSpace=wrap;html=1;strokeWidth=2;fillColor=#b1ddf0;strokeColor=#000000;fontStyle=2" parent="1" vertex="1">
          <mxGeometry x="787.9399999999999" y="146" width="160" height="60" as="geometry" />
        </mxCell>
        <mxCell id="MKgT2Ga8DgcfNqjwjeTm-7" value="&lt;span&gt;ros2_base_image:&lt;/span&gt;&lt;span&gt;jazzy&lt;/span&gt;" style="rounded=1;whiteSpace=wrap;html=1;strokeWidth=2;fillColor=#fad7ac;strokeColor=#000000;fontStyle=2" parent="1" vertex="1">
          <mxGeometry x="787.9399999999999" y="377" width="160" height="60" as="geometry" />
        </mxCell>
        <mxCell id="MKgT2Ga8DgcfNqjwjeTm-10" value="&lt;div&gt;Docker Hub&lt;/div&gt;" style="text;html=1;align=center;verticalAlign=middle;whiteSpace=wrap;rounded=0;textShadow=0;fontStyle=3" parent="1" vertex="1">
          <mxGeometry x="643.06" y="77" width="99" height="22" as="geometry" />
        </mxCell>
        <mxCell id="MKgT2Ga8DgcfNqjwjeTm-14" value="&lt;div&gt;Local Base Image&lt;/div&gt;" style="text;html=1;align=center;verticalAlign=middle;whiteSpace=wrap;rounded=0;fontStyle=3" parent="1" vertex="1">
          <mxGeometry x="635.9399999999999" y="343" width="113.24" height="19" as="geometry" />
        </mxCell>
        <mxCell id="MKgT2Ga8DgcfNqjwjeTm-15" value="Local Workspace Image" style="text;html=1;align=center;verticalAlign=middle;whiteSpace=wrap;rounded=0;fontStyle=3" parent="1" vertex="1">
          <mxGeometry x="622.56" y="696" width="141" height="19" as="geometry" />
        </mxCell>
        <mxCell id="R12nhXalU3xRYTVcm4vd-3" value="&lt;span&gt;&amp;lt;ros_ws&amp;gt;_container&lt;/span&gt;" style="shape=process;whiteSpace=wrap;html=1;backgroundOutline=1;fontStyle=1;fillColor=#E6FFCC;strokeWidth=2;" parent="1" vertex="1">
          <mxGeometry x="612.9399999999999" y="1044.5" width="163" height="60" as="geometry" />
        </mxCell>
        <mxCell id="dtCaNR7slKnyelees8kw-1" value="" style="html=1;shadow=0;dashed=0;align=center;verticalAlign=middle;shape=mxgraph.arrows2.stylisedArrow;dy=0.79;dx=25.88;notch=9.41;feather=0.5;rotation=90;fillColor=#E6E6E6;" parent="1" vertex="1">
          <mxGeometry x="582.9" y="878.1" width="219.3" height="39" as="geometry" />
        </mxCell>
        <mxCell id="dtCaNR7slKnyelees8kw-6" value="Final Container" style="text;html=1;align=center;verticalAlign=middle;whiteSpace=wrap;rounded=0;fontStyle=3" parent="1" vertex="1">
          <mxGeometry x="623.43" y="1018.5" width="141" height="19" as="geometry" />
        </mxCell>
        <mxCell id="9BAE4sZVdfyyzppqP5_Z-1" value="" style="rounded=1;whiteSpace=wrap;html=1;labelBackgroundColor=none;fillColor=none;dashed=1;" parent="1" vertex="1">
          <mxGeometry x="248.62" y="1019.5" width="86.88" height="110" as="geometry" />
        </mxCell>
        <mxCell id="9BAE4sZVdfyyzppqP5_Z-2" value="" style="rounded=1;whiteSpace=wrap;html=1;labelBackgroundColor=none;fillColor=none;dashed=1;" parent="1" vertex="1">
          <mxGeometry x="408.12" y="1018" width="92.12" height="111.5" as="geometry" />
        </mxCell>
        <mxCell id="9BAE4sZVdfyyzppqP5_Z-3" value="" style="whiteSpace=wrap;html=1;shape=mxgraph.basic.document;fontSize=12;fillColor=#ffe6cc;strokeColor=#d79b00;" parent="1" vertex="1">
          <mxGeometry x="262.5" y="1035.5" width="60" height="80" as="geometry" />
        </mxCell>
        <mxCell id="9BAE4sZVdfyyzppqP5_Z-4" value="" style="whiteSpace=wrap;html=1;shape=mxgraph.basic.document;fontSize=9;fillColor=#d5e8d4;strokeColor=#82b366;" parent="1" vertex="1">
          <mxGeometry x="426.12" y="1034.5" width="60" height="80" as="geometry" />
        </mxCell>
        <UserObject label="&lt;font style=&quot;font-size: 11px;&quot;&gt;docker-compose.yml&lt;/font&gt;" id="9BAE4sZVdfyyzppqP5_Z-5">
          <mxCell style="text;html=1;align=center;verticalAlign=middle;whiteSpace=wrap;rounded=0;rotation=305;fontSize=11;fontStyle=2" parent="1" vertex="1">
            <mxGeometry x="422.12" y="1061.5" width="60" height="30" as="geometry" />
          </mxCell>
        </UserObject>
        <UserObject label=".env" id="9BAE4sZVdfyyzppqP5_Z-6">
          <mxCell style="text;html=1;align=center;verticalAlign=middle;whiteSpace=wrap;rounded=0;rotation=305;fontSize=13;fontStyle=2" parent="1" vertex="1">
            <mxGeometry x="260.5" y="1060.5" width="60" height="30" as="geometry" />
          </mxCell>
        </UserObject>
        <mxCell id="9BAE4sZVdfyyzppqP5_Z-7" value="" style="sketch=0;points=[[0,0,0],[0.25,0,0],[0.5,0,0],[0.75,0,0],[1,0,0],[0,1,0],[0.25,1,0],[0.5,1,0],[0.75,1,0],[1,1,0],[0,0.25,0],[0,0.5,0],[0,0.75,0],[1,0.25,0],[1,0.5,0],[1,0.75,0]];points=[[0,0,0],[0.25,0,0],[0.5,0,0],[0.75,0,0],[1,0,0],[0,1,0],[0.25,1,0],[0.5,1,0],[0.75,1,0],[1,1,0],[0,0.25,0],[0,0.5,0],[0,0.75,0],[1,0.25,0],[1,0.5,0],[1,0.75,0]];outlineConnect=0;fontColor=default;fillColor=#6E6E6E;strokeColor=#ffffff;dashed=0;verticalLabelPosition=bottom;verticalAlign=top;align=center;html=1;fontSize=12;fontStyle=0;aspect=fixed;shape=mxgraph.aws4.resourceIcon;resIcon=mxgraph.aws4.command_line_interface;" parent="1" vertex="1">
          <mxGeometry x="141" y="961" width="40" height="40" as="geometry" />
        </mxCell>
        <mxCell id="9BAE4sZVdfyyzppqP5_Z-8" value="&lt;b&gt;&lt;font style=&quot;font-size: 11px;&quot;&gt;CLI&lt;/font&gt;&lt;/b&gt;" style="text;html=1;align=center;verticalAlign=middle;whiteSpace=wrap;rounded=0;" parent="1" vertex="1">
          <mxGeometry x="141" y="1001" width="40" height="15" as="geometry" />
        </mxCell>
        <mxCell id="9BAE4sZVdfyyzppqP5_Z-9" style="edgeStyle=orthogonalEdgeStyle;rounded=1;orthogonalLoop=1;jettySize=auto;html=1;exitX=1;exitY=0.5;exitDx=0;exitDy=0;exitPerimeter=0;curved=0;entryX=0.5;entryY=0;entryDx=0;entryDy=0;entryPerimeter=0;jumpStyle=gap;" parent="1" source="9BAE4sZVdfyyzppqP5_Z-7" target="9BAE4sZVdfyyzppqP5_Z-4" edge="1">
          <mxGeometry relative="1" as="geometry">
            <mxPoint x="392.18" y="993" as="targetPoint" />
            <Array as="points">
              <mxPoint x="456" y="981" />
            </Array>
          </mxGeometry>
        </mxCell>
        <mxCell id="9BAE4sZVdfyyzppqP5_Z-10" value="project root" style="edgeLabel;html=1;align=center;verticalAlign=middle;resizable=0;points=[];fontStyle=2;fontSize=10;" parent="9BAE4sZVdfyyzppqP5_Z-9" vertex="1" connectable="0">
          <mxGeometry x="0.8161" y="2" relative="1" as="geometry">
            <mxPoint x="-6" y="5" as="offset" />
          </mxGeometry>
        </mxCell>
        <mxCell id="9BAE4sZVdfyyzppqP5_Z-11" style="edgeStyle=orthogonalEdgeStyle;rounded=0;orthogonalLoop=1;jettySize=auto;html=1;exitX=1;exitY=0.5;exitDx=0;exitDy=0;exitPerimeter=0;entryX=0;entryY=0.5;entryDx=0;entryDy=0;entryPerimeter=0;" parent="1" source="9BAE4sZVdfyyzppqP5_Z-3" target="9BAE4sZVdfyyzppqP5_Z-4" edge="1">
          <mxGeometry relative="1" as="geometry" />
        </mxCell>
        <mxCell id="9BAE4sZVdfyyzppqP5_Z-12" value="args" style="edgeLabel;html=1;align=center;verticalAlign=middle;resizable=0;points=[];" parent="9BAE4sZVdfyyzppqP5_Z-11" vertex="1" connectable="0">
          <mxGeometry x="-0.1904" y="-1" relative="1" as="geometry">
            <mxPoint x="6" y="-3" as="offset" />
          </mxGeometry>
        </mxCell>
        <mxCell id="9BAE4sZVdfyyzppqP5_Z-13" style="edgeStyle=orthogonalEdgeStyle;rounded=0;orthogonalLoop=1;jettySize=auto;html=1;exitX=1;exitY=0.5;exitDx=0;exitDy=0;exitPerimeter=0;entryX=0;entryY=0.5;entryDx=0;entryDy=0;" parent="1" source="9BAE4sZVdfyyzppqP5_Z-4" target="R12nhXalU3xRYTVcm4vd-3" edge="1">
          <mxGeometry relative="1" as="geometry">
            <mxPoint x="560.06" y="1072" as="targetPoint" />
          </mxGeometry>
        </mxCell>
        <mxCell id="9BAE4sZVdfyyzppqP5_Z-14" value="args" style="edgeLabel;html=1;align=center;verticalAlign=middle;resizable=0;points=[];" parent="9BAE4sZVdfyyzppqP5_Z-13" vertex="1" connectable="0">
          <mxGeometry x="-0.1349" y="2" relative="1" as="geometry">
            <mxPoint x="1" y="1" as="offset" />
          </mxGeometry>
        </mxCell>
        <mxCell id="9BAE4sZVdfyyzppqP5_Z-15" value="workspaces/&amp;lt;ros_ws&amp;gt;" style="text;html=1;align=center;verticalAlign=middle;whiteSpace=wrap;rounded=0;fontSize=10;fontStyle=2" parent="1" vertex="1">
          <mxGeometry x="231" y="1000" width="119" height="18.5" as="geometry" />
        </mxCell>
        <mxCell id="9BAE4sZVdfyyzppqP5_Z-18" value="" style="shape=curlyBracket;whiteSpace=wrap;html=1;rounded=1;flipH=1;labelPosition=right;verticalLabelPosition=middle;align=left;verticalAlign=middle;" parent="1" vertex="1">
          <mxGeometry x="1025" y="77" width="32" height="152" as="geometry" />
        </mxCell>
        <mxCell id="9BAE4sZVdfyyzppqP5_Z-22" value="Step 1" style="text;html=1;align=center;verticalAlign=middle;resizable=0;points=[];autosize=1;strokeColor=none;fillColor=none;fontSize=12;" parent="1" vertex="1">
          <mxGeometry x="1057" y="143" width="52" height="26" as="geometry" />
        </mxCell>
        <mxCell id="9BAE4sZVdfyyzppqP5_Z-23" value="" style="shape=curlyBracket;whiteSpace=wrap;html=1;rounded=1;flipH=1;labelPosition=right;verticalLabelPosition=middle;align=left;verticalAlign=middle;" parent="1" vertex="1">
          <mxGeometry x="1025" y="331" width="32" height="152" as="geometry" />
        </mxCell>
        <mxCell id="9BAE4sZVdfyyzppqP5_Z-24" value="Step 2" style="text;html=1;align=center;verticalAlign=middle;resizable=0;points=[];autosize=1;strokeColor=none;fillColor=none;fontSize=12;" parent="1" vertex="1">
          <mxGeometry x="1057" y="397" width="52" height="26" as="geometry" />
        </mxCell>
        <mxCell id="9BAE4sZVdfyyzppqP5_Z-25" value="" style="shape=curlyBracket;whiteSpace=wrap;html=1;rounded=1;flipH=1;labelPosition=right;verticalLabelPosition=middle;align=left;verticalAlign=middle;" parent="1" vertex="1">
          <mxGeometry x="1025" y="673.5" width="32" height="152" as="geometry" />
        </mxCell>
        <mxCell id="9BAE4sZVdfyyzppqP5_Z-26" value="Step 3" style="text;html=1;align=center;verticalAlign=middle;resizable=0;points=[];autosize=1;strokeColor=none;fillColor=none;fontSize=12;" parent="1" vertex="1">
          <mxGeometry x="1057" y="739.5" width="52" height="26" as="geometry" />
        </mxCell>
        <mxCell id="9BAE4sZVdfyyzppqP5_Z-27" value="" style="shape=curlyBracket;whiteSpace=wrap;html=1;rounded=1;flipH=1;labelPosition=right;verticalLabelPosition=middle;align=left;verticalAlign=middle;" parent="1" vertex="1">
          <mxGeometry x="1025" y="997.5" width="32" height="152" as="geometry" />
        </mxCell>
        <mxCell id="9BAE4sZVdfyyzppqP5_Z-28" value="Step 4" style="text;html=1;align=center;verticalAlign=middle;resizable=0;points=[];autosize=1;strokeColor=none;fillColor=none;fontSize=12;" parent="1" vertex="1">
          <mxGeometry x="1057" y="1063.5" width="52" height="26" as="geometry" />
        </mxCell>
      </root>
    </mxGraphModel>
  </diagram>
</mxfile>
